<?xml version="1.0" standalone="no"?>
<!DOCTYPE svg PUBLIC "-//W3C//DTD SVG 20010904//EN"
 "http://www.w3.org/TR/2001/REC-SVG-20010904/DTD/svg10.dtd">
<svg version="1.0" xmlns="http://www.w3.org/2000/svg"
 width="300.000000pt" height="282.000000pt" viewBox="0 0 300.000000 282.000000"
 preserveAspectRatio="xMidYMid meet">
<metadata>
Created by potrace 1.10, written by Peter Selinger 2001-2011
</metadata>
<g transform="translate(0.000000,282.000000) scale(0.100000,-0.100000)"
fill="#000000" stroke="none">
<path d="M325 2663 c-35 -9 -86 -50 -113 -90 -27 -38 -27 -39 -27 -223 0 -184
0 -185 27 -223 14 -22 43 -51 65 -65 38 -27 39 -27 223 -27 184 0 185 0 223
27 22 14 51 43 65 65 27 38 27 39 27 223 0 184 0 185 -27 223 -14 22 -43 51
-65 65 -37 26 -42 27 -208 29 -93 1 -179 -1 -190 -4z m354 -71 c70 -35 76 -53
76 -242 0 -189 -6 -207 -76 -242 -50 -26 -308 -26 -358 0 -70 35 -76 53 -76
242 0 155 2 171 21 197 39 54 74 63 234 63 118 0 151 -3 179 -18z"/>
<path d="M654 2529 c-3 -6 -2 -15 4 -21 13 -13 32 -2 32 18 0 16 -26 19 -36 3z"/>
<path d="M435 2496 c-101 -44 -125 -178 -46 -257 65 -65 157 -65 222 0 124
124 -15 327 -176 257z m114 -60 c67 -35 65 -143 -4 -174 -51 -23 -107 -7 -131
39 -47 91 44 182 135 135z"/>
<path d="M1205 2645 l-25 -24 0 -271 0 -271 25 -24 c23 -24 29 -25 160 -25
l135 0 0 110 0 110 -40 0 -40 0 0 50 0 50 39 0 39 0 4 65 c3 58 8 70 36 97 27
28 39 33 97 36 l65 4 0 -50 0 -51 -37 -3 c-38 -3 -38 -3 -41 -50 l-3 -48 50 0
51 0 -19 -47 c-16 -42 -23 -48 -50 -51 l-31 -3 0 -110 0 -109 75 0 c67 0 79 3
100 25 l25 24 0 271 0 271 -25 24 -24 25 -271 0 -271 0 -24 -25z"/>
<path d="M2562 2593 c-36 -18 -72 -76 -72 -118 0 -26 -2 -27 -42 -20 -61 11
-116 37 -175 84 l-53 41 -6 -25 c-10 -40 3 -95 28 -122 l23 -25 -27 7 c-22 6
-28 4 -28 -9 0 -30 28 -73 62 -95 30 -18 31 -21 11 -21 -13 0 -23 -3 -23 -8 0
-19 36 -55 68 -69 35 -14 35 -16 17 -29 -25 -19 -81 -34 -125 -34 -32 0 -33
-1 -14 -14 73 -52 230 -58 329 -12 115 52 204 175 213 294 3 47 10 63 36 91
l31 33 -33 -7 -33 -7 26 28 c35 37 31 46 -12 28 -34 -15 -39 -14 -74 5 -44 25
-82 26 -127 4z"/>
<path d="M424 1721 c-49 -12 -134 -63 -160 -94 -14 -17 -37 -53 -52 -81 -22
-43 -26 -64 -27 -136 0 -74 4 -92 28 -139 l27 -54 -20 -53 c-23 -62 -20 -63
54 -38 47 16 49 16 99 -7 74 -35 192 -33 263 3 75 39 107 70 145 140 31 58 34
70 33 148 0 72 -4 93 -26 136 -39 75 -70 107 -137 143 -65 34 -164 49 -227 32z
m0 -184 c20 -53 20 -61 1 -77 -8 -7 -15 -16 -15 -21 0 -18 81 -97 111 -109 26
-11 32 -10 53 9 27 25 35 26 81 4 75 -36 16 -125 -73 -108 -124 23 -267 166
-265 263 1 47 27 82 62 82 24 0 31 -6 45 -43z"/>
<path d="M2495 1720 c-11 -4 -31 -20 -45 -35 -21 -22 -25 -38 -28 -101 l-4
-74 -39 0 -39 0 0 -50 0 -50 40 0 40 0 0 -160 0 -160 60 0 60 0 0 159 0 160
41 3 c39 3 42 6 60 51 l19 47 -60 0 -60 0 0 48 c0 55 12 72 52 72 27 0 28 2
28 50 l0 50 -52 -1 c-29 0 -62 -4 -73 -9z"/>
<path d="M1250 1621 c-13 -4 -33 -22 -45 -41 -17 -31 -20 -52 -20 -170 0 -118
3 -139 20 -170 12 -19 32 -37 45 -41 14 -4 126 -7 250 -7 124 0 236 3 250 7
13 4 33 22 45 41 17 31 20 52 20 170 0 118 -3 139 -20 170 -12 19 -32 37 -45
41 -32 9 -468 9 -500 0z m360 -211 c0 -3 -43 -31 -95 -62 l-95 -57 0 119 0
119 95 -57 c52 -31 95 -59 95 -62z"/>
<path d="M1202 767 c-28 -30 -28 -68 1 -95 30 -28 68 -28 95 1 28 30 28 68 -1
95 -30 28 -68 28 -95 -1z"/>
<path d="M2405 777 c-68 -23 -101 -44 -149 -98 -49 -54 -76 -122 -76 -190 0
-57 35 -141 80 -189 36 -39 40 -48 40 -97 l0 -54 46 27 c40 24 56 27 147 28
86 1 110 5 152 26 135 67 201 205 161 343 -21 73 -95 155 -168 187 -64 28
-175 36 -233 17z m108 -248 l35 -41 79 43 78 43 -85 -91 -85 -90 -44 42 -43
43 -69 -39 c-38 -22 -72 -39 -76 -39 -4 0 30 38 77 85 47 47 88 85 91 85 4 0
23 -18 42 -41z"/>
<path d="M325 663 c-34 -9 -86 -50 -113 -90 -22 -31 -27 -49 -27 -103 0 -75
26 -123 92 -168 55 -38 151 -38 206 0 56 38 88 90 94 154 l6 54 -102 0 -101 0
0 -40 0 -40 55 0 c30 0 55 -4 55 -8 0 -5 -14 -21 -31 -38 -25 -24 -39 -29 -79
-29 -43 0 -54 5 -82 33 -28 28 -33 39 -33 82 0 42 5 54 30 80 38 38 91 48 134
27 30 -15 31 -15 56 15 24 29 25 31 8 43 -44 30 -114 41 -168 28z"/>
<path d="M700 550 c0 -40 0 -40 -40 -40 -33 0 -40 -3 -40 -20 0 -17 7 -20 40
-20 40 0 40 0 40 -40 0 -33 3 -40 20 -40 17 0 20 7 20 40 0 40 0 40 40 40 33
0 40 3 40 20 0 17 -7 20 -40 20 -40 0 -40 0 -40 40 0 33 -3 40 -20 40 -17 0
-20 -7 -20 -40z"/>
<path d="M1180 370 l0 -220 70 0 70 0 0 220 0 220 -70 0 -70 0 0 -220z"/>
<path d="M1380 370 l0 -220 70 0 70 0 0 120 0 119 35 36 c47 47 83 55 107 25
15 -19 18 -41 18 -161 l0 -139 70 0 70 0 0 160 c0 176 -8 211 -55 248 -58 46
-145 38 -210 -19 l-35 -31 0 41 0 41 -70 0 -70 0 0 -220z"/>
</g>
</svg>
